<svg width="30" height="30" viewBox="0 0 30 30" fill="none" xmlns="http://www.w3.org/2000/svg">
<path d="M27.5 27.5L25 25M14.375 26.25C15.9344 26.25 17.4786 25.9428 18.9194 25.3461C20.3601 24.7493 21.6692 23.8746 22.7719 22.7719C23.8746 21.6692 24.7493 20.3601 25.3461 18.9194C25.9428 17.4786 26.25 15.9344 26.25 14.375C26.25 12.8156 25.9428 11.2714 25.3461 9.83063C24.7493 8.38989 23.8746 7.0808 22.7719 5.97811C21.6692 4.87541 20.3601 4.0007 18.9194 3.40393C17.4786 2.80716 15.9344 2.5 14.375 2.5C11.2256 2.5 8.2051 3.75111 5.97811 5.97811C3.75111 8.2051 2.5 11.2256 2.5 14.375C2.5 17.5244 3.75111 20.5449 5.97811 22.7719C8.2051 24.9989 11.2256 26.25 14.375 26.25V26.25Z" stroke="#D8DBE2" stroke-width="1.5" stroke-linecap="round" stroke-linejoin="round"/>
</svg>
